<?xml version="1.0" ?><!DOCTYPE svg  PUBLIC '-//W3C//DTD SVG 1.1//EN'  'http://www.w3.org/Graphics/SVG/1.1/DTD/svg11.dtd'><svg height="100%" style="fill-rule:evenodd;clip-rule:evenodd;stroke-linejoin:round;stroke-miterlimit:1.41421;" version="1.1" viewBox="0 0 24 24" width="100%" xml:space="preserve" xmlns="http://www.w3.org/2000/svg" xmlns:serif="http://www.serif.com/" xmlns:xlink="http://www.w3.org/1999/xlink"><rect height="24" id="Artboard4" style="fill:none;" width="24" x="0" y="0"/><rect height="14.5" style="fill:#f2f2f2;" width="18" x="3" y="4.75"/><path d="M4.5,6c0,-0.69 -0.559,-1.25 -1.25,-1.25c-0.69,0 -1.25,0.56 -1.25,1.25c0,2.662 0,8.881 0,11.75c0,0.829 0.672,1.5 1.5,1.5c0.532,0 1,0 1,0c0,0 0,-9.731 0,-13.25Z" style="fill:#eb4134;"/><path d="M19.5,6c0,-0.69 0.56,-1.25 1.25,-1.25c0.001,0 0.002,0 0.002,0c0.69,0 1.248,0.559 1.248,1.248c0,2.661 0,8.882 0,11.752c0,0.829 -0.671,1.5 -1.5,1.5c-0.531,0 -1,0 -1,0c0,0 0,-9.731 0,-13.25Z" style="fill:#eb4134;"/><path d="M2.624,7.082c-0.287,-0.166 -0.496,-0.438 -0.582,-0.758c-0.086,-0.32 -0.041,-0.66 0.125,-0.947c0,0 0.001,-0.001 0.001,-0.002c0.166,-0.287 0.439,-0.496 0.759,-0.582c0.32,-0.086 0.661,-0.041 0.948,0.125l8.125,4.691l8.127,-4.692c0.287,-0.166 0.627,-0.211 0.947,-0.125c0.32,0.086 0.592,0.295 0.758,0.582c0,0 0.001,0.001 0.001,0.001c0.166,0.287 0.211,0.629 0.125,0.949c-0.086,0.32 -0.296,0.593 -0.583,0.759l-6.875,3.969l-2.5,1.444l-2.5,-1.444l-6.876,-3.97Z" style="fill:#eb4134;"/></svg>